# xmcd CD database file
#
# Track frame offsets:
#	182
#	8922
#	20262
#	26792
#	38490
#	46707
#	58035
#	67817
#	77845
#	91435
#	98480
#	106430
#	115572
#	123740
#	135980
#	143825
#	158975
#	170110
#	177670
#	191865
#	201355
#
# Disc length: 2825 seconds
#
# Revision: 0
# Processed by: cddbd v1.5.1PL0 Copyright (c) Steve Scherf et al.
# Submitted via: CDex 1.51
#
DISCID=1c0b0715
DTITLE=Jim Reeves - Live - I Love You More
DYEAR=1989
DGENRE=Country
TTITLE0=If You Were Only Mine
TTITLE1=I Love You More
TTITLE2=Have I Told You Lately That I Love You
TTITLE3=I've Lived A Lot In My Time
TTITLE4=Everywhere You Go
TTITLE5=If Heartaches Are The Fashion
TTITLE6=Home
TTITLE7=Dear Hearts And Gentle People
TTITLE8=How's The World Treating You
TTITLE9=I'm Beginning To Forget You
TTITLE10=Roly Poly
TTITLE11=The Wind Up
TTITLE12=Sweet Evening Breeze
TTITLE13=Your Old Love Letters
TTITLE14=Till The End Of The World
TTITLE15=Making Believe
TTITLE16=Just Call Me Lonesome
TTITLE17=The Oklahoma Hills Where I Was Born
TTITLE18=The Highway To Nowhere
TTITLE19=Beyond The Shadow Of A Doubt
TTITLE20=An Evening Prayer
EXTD=YEAR: 1989
EXTT0=
EXTT1=
EXTT2=
EXTT3=
EXTT4=
EXTT5=
EXTT6=
EXTT7=
EXTT8=
EXTT9=
EXTT10=
EXTT11=
EXTT12=
EXTT13=
EXTT14=
EXTT15=
EXTT16=
EXTT17=
EXTT18=
EXTT19=
EXTT20=
PLAYORDER=
